<svg width="1091" height="218" viewBox="0 0 1091 218" version="1.1" xmlns="http://www.w3.org/2000/svg" xmlns:xlink="http://www.w3.org/1999/xlink">
<g id="Canvas" fill="none">
<g id="Group">
<g id="Vector" transform="translate(1 1)">
<path d="M 1067.55 131.875C 1064.76 130.218 1061.97 128.561 1058.92 125.421C 1055.61 122.019 1054.39 119.228 1050.12 116.35C 1048.37 115.129 1047.07 114.257 1045.15 113.821C 1041.05 112.774 1038.96 114.518 1034.34 113.821C 1032.16 113.472 1030.67 112.861 1028.93 111.989C 1016.99 106.581 1014.02 95.3302 1005.13 94.8069C 1003.39 94.7197 1000.95 95.243 996.15 96.3768C 993.186 97.0746 990.832 97.7723 988.391 99.1678C 987.083 99.9528 986.212 100.563 986.037 100.738C 979.15 105.796 936.866 93.3242 921.435 107.105C 919.778 108.587 917.25 111.466 915.506 116.873L 912.891 110.506C 907.66 108.675 903.65 108.849 901.121 109.198C 900.511 109.285 899.988 109.372 899.378 109.547L 902.952 79.1947L 890.223 85.8233L 884.295 74.8338L 862.586 70.2112L 850.555 64.0186L 844.453 60.181L 834.078 64.5419L 827.975 78.9331L 827.277 83.6429C 825.883 83.8173 824.226 84.3406 822.744 85.3872C 820.39 87.2188 820.041 89.5738 817.426 90.5332C 815.508 91.2309 813.764 90.7076 813.328 90.5332C 809.928 89.3993 808.272 85.6489 807.313 84.079C 806.441 82.5962 805.22 81.4624 803.825 80.4158L 807.138 50.8486L 795.194 42.9989L 786.302 34.3642L 770.957 29.5672L 760.583 33.3176L 758.054 25.4679L 744.541 21.3686L 723.181 15.1761L 707.488 17.2693L 694.237 30.6138L 697.375 14.5655L 688.221 11.164L 664.595 10.1174L 658.317 23.113L 654.656 8.63467L 626.321 8.11135L 622.485 17.2693L 613.505 11.2512L 603.044 4.6226L 595.72 10.6407L 571.222 1.29966e-09L 545.416 6.19254L 517.256 1.91881L 492.757 12.2979L 481.947 9.50685L 470.526 6.54141L 466.428 17.3566L 465.818 9.50685L 433.124 11.6001L 430.596 23.2002L 424.319 10.2046L 400.692 11.2512L 391.538 14.6528L 394.677 30.701L 381.512 17.3566L 365.819 15.2633L 344.46 21.4558L 330.946 25.5551L 328.418 33.4048L 318.043 29.6544L 302.612 34.4514L 293.719 42.9989L 281.775 50.8486L 285.088 80.9391C 283.606 81.9857 282.298 83.2068 281.426 84.6895C 280.467 86.2594 278.898 90.0971 275.411 91.1437C 274.975 91.3181 273.231 91.8414 271.313 91.1437C 268.611 90.1843 268.349 87.8294 265.995 85.9978C 264.513 84.8639 262.856 84.4278 261.462 84.2534L 260.764 79.5436L 254.661 65.1525L 244.287 60.7915L 238.184 64.6292L 226.153 70.8217L 204.444 75.4443L 198.516 86.4339L 191.803 94.3708L 189.361 110.07C 188.838 109.896 188.228 109.809 187.618 109.721C 185.089 109.372 180.992 109.198 175.848 111.03L 173.233 117.397C 171.489 111.989 169.048 109.111 167.304 107.628C 151.873 93.7603 109.589 106.233 102.702 101.261C 102.527 101.174 101.656 100.476 100.348 99.6911C 97.8196 98.2956 95.5528 97.5979 92.5886 96.9001C 87.7935 95.7663 85.4396 95.243 83.6088 95.3302C 74.7161 95.8535 71.7519 107.105 59.8079 112.512C 58.0642 113.297 56.5821 113.995 54.4026 114.344C 49.6947 115.042 47.6895 113.297 43.5919 114.344C 41.6739 114.867 40.4533 115.739 38.6225 116.873C 34.3505 119.751 33.13 122.455 29.817 125.944C 26.7656 129.084 23.8886 130.828 21.1859 132.398C 10.4625 138.765 -0.0866461 137.544 0.000536683 138.591C 0.000536683 139.376 5.58023 139.812 9.59064 139.986C 12.2933 140.073 16.914 140.161 23.104 138.94C 32.6069 137.108 40.7149 133.096 41.8482 132.573C 44.9868 131.003 47.0792 129.694 50.8281 128.997C 54.2282 128.299 57.454 128.561 59.6335 128.648C 62.9465 128.822 63.9055 129.258 67.6543 129.694C 71.0545 130.131 74.193 130.479 77.8547 130.218C 82.9985 129.869 88.3166 129.52 92.5014 125.595C 95.2041 123.066 95.3784 120.973 98.1683 119.926C 98.9529 119.664 100.784 119.141 105.404 120.798C 112.118 123.153 112.728 125.857 116.913 126.816C 119.528 127.427 119.615 126.467 128.072 124.636C 138.098 122.455 142.196 122.891 143.678 123.066C 145.596 123.327 148.734 123.938 152.047 125.944C 153.093 126.555 157.365 129.258 156.929 131.613C 156.755 132.66 155.709 133.183 153.791 133.968C 148.386 136.323 143.939 137.457 143.59 137.544C 137.313 139.201 138.447 139.376 133.652 140.422C 128.595 141.556 126.067 142.167 123.451 142.167C 120.487 142.167 118.22 141.643 115.256 143.039C 114.21 143.562 112.989 144.086 112.118 145.394C 110.287 148.098 111.594 151.325 110.548 151.848C 109.153 152.546 106.538 146.964 103.748 147.574C 102.702 147.836 102.789 148.621 100.609 150.976C 97.9939 153.767 96.8605 153.68 96.6862 154.901C 96.4246 156.558 98.3427 157.256 100.173 161.355C 100.871 163.099 101.307 163.971 100.958 164.756C 100.435 166.239 98.4298 165.977 94.681 167.111C 92.4142 167.809 89.2757 168.768 86.6602 171.385C 85.8755 172.17 86.0499 172.17 83.3472 175.833C 83.3472 175.833 81.342 178.624 79.2496 181.154C 75.5008 185.863 69.2236 188.48 67.1312 189.352C 53.4435 195.37 41.0636 205.4 41.4995 206.447C 41.8482 207.319 50.4793 202.173 53.0948 205.226C 55.3616 207.93 51.3512 214.646 52.9205 215.867C 54.3154 216.913 57.5411 211.593 64.8645 207.145C 71.316 203.22 73.0597 204.79 79.1625 200.342C 81.8651 198.336 84.3062 196.504 86.8345 193.364C 89.1013 190.573 89.2757 189.265 91.2809 188.044C 92.6758 187.172 94.0707 186.823 100.261 186.997C 108.369 187.172 108.717 187.782 110.287 186.997C 112.205 186.038 113.687 183.334 116.738 177.926C 120.574 171.036 119.964 170.774 121.62 169.03C 126.241 164.146 133.041 164.059 134.523 164.059C 136.703 164.059 136.267 164.408 145.334 165.454C 149.519 165.89 150.914 165.977 152.396 165.105C 155.186 163.448 154.924 160.744 157.453 158.913C 159.806 157.256 162.858 157.692 167.043 159C 175.151 161.617 177.417 164.495 185.177 168.507C 193.546 172.868 192.413 170.338 205.49 175.92C 207.408 176.793 211.157 178.45 216.127 178.188C 218.568 178.101 221.357 178.014 223.45 175.92C 225.978 173.304 225.804 169.117 225.542 164.669C 225.281 159.087 223.886 154.639 222.491 150.714L 227.46 146.702L 243.763 139.288L 257.277 137.719C 257.277 138.067 257.364 138.416 257.364 138.765C 257.8 142.777 259.02 145.655 259.892 147.313C 263.728 154.813 270.877 158.913 277.154 159.61C 279.16 159.872 280.816 160.047 282.821 159.262C 288.401 157.168 289.97 150.191 291.975 150.714C 293.806 151.237 292.411 157.43 295.114 159.262C 297.904 161.093 300.868 155.773 308.627 154.465C 312.725 153.767 313.51 155.075 322.141 154.465C 327.197 154.116 328.418 153.592 329.377 152.72C 331.905 150.452 332.341 146.179 331.905 140.073C 331.121 128.473 328.156 119.664 327.197 116.96L 338.182 110.942L 353.003 110.245L 361.809 107.89L 372.794 107.89L 373.404 99.3423L 381.861 109.285L 401.39 108.936L 434.432 106.581L 459.279 100.389L 471.572 96.9874L 472.793 102.482L 485.347 104.575L 540.098 98.3829L 544.457 97.3362L 544.544 96.2024L 544.631 97.249L 548.99 98.2956L 603.741 104.488L 616.295 102.395L 617.516 96.9001L 629.809 100.302L 654.656 106.494L 687.698 108.849L 707.227 109.198L 715.684 99.255L 716.294 107.802L 727.279 107.802L 736.084 110.157L 750.905 110.855L 761.629 116.699C 760.496 119.839 757.88 128.299 757.095 139.288C 756.659 145.394 757.095 149.668 759.624 151.935C 760.583 152.807 761.803 153.331 766.86 153.68C 775.491 154.29 776.276 152.982 780.373 153.68C 788.22 154.988 791.097 160.308 793.887 158.477C 796.676 156.645 795.194 150.452 797.025 149.929C 798.943 149.406 800.512 156.383 806.179 158.477C 808.184 159.262 809.841 159.087 811.846 158.826C 818.123 158.128 825.359 154.028 829.108 146.528C 829.98 144.87 831.201 141.992 831.637 137.98C 831.637 137.631 831.724 137.282 831.724 136.934L 845.237 138.504L 861.54 145.917L 866.51 149.929C 865.028 153.854 863.72 158.302 863.458 163.884C 863.197 168.332 863.022 172.519 865.551 175.135C 867.643 177.229 870.433 177.316 872.874 177.403C 877.843 177.578 881.592 175.92 883.51 175.135C 896.501 169.466 895.367 172.083 903.824 167.722C 911.583 163.71 913.85 160.832 921.958 158.215C 926.143 156.907 929.194 156.471 931.548 158.128C 933.989 159.872 933.728 162.663 936.605 164.32C 938.087 165.192 939.482 165.105 943.666 164.669C 952.821 163.623 952.298 163.274 954.477 163.274C 955.959 163.274 962.759 163.361 967.38 168.245C 969.037 169.99 968.426 170.251 972.262 177.141C 975.314 182.549 976.796 185.253 978.714 186.212C 980.37 186.997 980.719 186.387 988.74 186.212C 994.843 186.038 996.325 186.387 997.72 187.259C 999.638 188.48 999.899 189.701 1002.17 192.579C 1004.69 195.806 1007.14 197.551 1009.84 199.557C 1015.94 204.092 1017.68 202.435 1024.14 206.36C 1031.46 210.808 1034.69 216.128 1036.08 215.082C 1037.65 213.948 1033.64 207.145 1035.91 204.441C 1038.52 201.388 1047.15 206.447 1047.5 205.662C 1047.94 204.615 1035.56 194.585 1021.87 188.567C 1019.78 187.608 1013.5 185.078 1009.75 180.369C 1007.75 177.839 1005.65 175.048 1005.65 175.048C 1002.95 171.385 1003.13 171.385 1002.34 170.6C 999.725 167.983 996.586 167.024 994.32 166.326C 990.571 165.192 988.566 165.454 988.042 163.971C 987.694 163.099 988.13 162.227 988.827 160.57C 990.658 156.383 992.489 155.773 992.314 154.116C 992.14 152.807 991.007 152.982 988.391 150.191C 986.124 147.836 986.299 146.964 985.253 146.789C 982.55 146.179 979.934 151.761 978.452 151.063C 977.406 150.54 978.714 147.313 976.883 144.609C 976.011 143.301 974.791 142.69 973.744 142.254C 970.78 140.858 968.601 141.382 965.549 141.382C 962.847 141.382 960.318 140.858 955.349 139.637C 950.554 138.591 951.687 138.329 945.41 136.759C 945.061 136.672 940.615 135.538 935.21 133.183C 933.292 132.398 932.245 131.788 932.071 130.828C 931.635 128.561 935.907 125.857 936.953 125.159C 940.179 123.066 943.318 122.542 945.323 122.281C 946.718 122.106 950.903 121.67 960.929 123.851C 969.385 125.682 969.472 126.642 972.088 126.031C 976.273 125.072 976.883 122.455 983.596 120.013C 988.217 118.356 990.048 118.879 990.832 119.141C 993.622 120.1 993.797 122.281 996.499 124.81C 1000.6 128.735 1005.91 129.084 1011.15 129.433C 1014.81 129.694 1018.03 129.346 1021.35 128.909C 1025.1 128.473 1026.05 128.037 1029.37 127.863C 1031.55 127.776 1034.77 127.514 1038.17 128.212C 1041.92 128.909 1044.01 130.218 1047.15 131.788C 1048.2 132.311 1056.31 136.236 1065.9 138.155C 1072.09 139.376 1076.71 139.288 1079.41 139.201C 1083.42 139.114 1089 138.591 1089 137.806C 1088.74 137.021 1078.28 138.242 1067.55 131.875Z" fill="white"/>
<path d="M 1067.55 131.875C 1064.76 130.218 1061.97 128.561 1058.92 125.421C 1055.61 122.019 1054.39 119.228 1050.12 116.35C 1048.37 115.129 1047.07 114.257 1045.15 113.821C 1041.05 112.774 1038.96 114.518 1034.34 113.821C 1032.16 113.472 1030.67 112.861 1028.93 111.989C 1016.99 106.581 1014.02 95.3302 1005.13 94.8069C 1003.39 94.7197 1000.95 95.243 996.15 96.3768C 993.186 97.0746 990.832 97.7723 988.391 99.1678C 987.083 99.9528 986.212 100.563 986.037 100.738C 979.15 105.796 936.866 93.3242 921.435 107.105C 919.778 108.587 917.25 111.466 915.506 116.873L 912.891 110.506C 907.66 108.675 903.65 108.849 901.121 109.198C 900.511 109.285 899.988 109.372 899.378 109.547L 902.952 79.1947L 890.223 85.8233L 884.295 74.8338L 862.586 70.2112L 850.555 64.0186L 844.452 60.181L 834.078 64.5419L 827.975 78.9331L 827.277 83.6429C 825.883 83.8173 824.226 84.3406 822.744 85.3872C 820.39 87.2188 820.041 89.5738 817.426 90.5332C 815.508 91.2309 813.764 90.7076 813.328 90.5332C 809.928 89.3993 808.272 85.6489 807.313 84.079C 806.441 82.5962 805.22 81.4624 803.825 80.4158L 807.138 50.8486L 795.194 42.9989L 786.302 34.3642L 770.957 29.5672L 760.583 33.3176L 758.054 25.4679L 744.541 21.3686L 723.181 15.1761L 707.488 17.2693L 694.237 30.6138L 697.375 14.5655L 688.221 11.164L 664.595 10.1174L 658.317 23.113L 654.656 8.63467L 626.321 8.11135L 622.485 17.2693L 613.505 11.2512L 603.043 4.6226L 595.72 10.6407L 571.222 1.29966e-09L 545.416 6.19254L 517.256 1.91881L 492.757 12.2979L 481.947 9.50685L 470.526 6.54141L 466.428 17.3565L 465.818 9.50685L 433.124 11.6001L 430.596 23.2002L 424.319 10.2046L 400.692 11.2512L 391.538 14.6528L 394.677 30.701L 381.512 17.3565L 365.819 15.2633L 344.46 21.4558L 330.946 25.5551L 328.418 33.4048L 318.043 29.6544L 302.612 34.4514L 293.719 42.9989L 281.775 50.8486L 285.088 80.9391C 283.606 81.9857 282.298 83.2068 281.426 84.6895C 280.467 86.2594 278.898 90.0971 275.411 91.1437C 274.975 91.3181 273.231 91.8414 271.313 91.1437C 268.611 90.1843 268.349 87.8294 265.995 85.9978C 264.513 84.8639 262.856 84.4278 261.462 84.2534L 260.764 79.5436L 254.661 65.1525L 244.287 60.7915L 238.184 64.6292L 226.153 70.8217L 204.444 75.4443L 198.516 86.4339L 191.803 94.3708L 189.361 110.07C 188.838 109.896 188.228 109.809 187.618 109.721C 185.089 109.372 180.992 109.198 175.848 111.03L 173.233 117.397C 171.489 111.989 169.048 109.111 167.304 107.628C 151.873 93.7603 109.589 106.233 102.702 101.261C 102.527 101.174 101.656 100.476 100.348 99.6911C 97.8196 98.2956 95.5528 97.5979 92.5886 96.9001C 87.7935 95.7663 85.4396 95.243 83.6088 95.3302C 74.7161 95.8535 71.7519 107.105 59.8079 112.512C 58.0642 113.297 56.5821 113.995 54.4026 114.344C 49.6947 115.042 47.6895 113.297 43.5919 114.344C 41.6739 114.867 40.4533 115.739 38.6225 116.873C 34.3505 119.751 33.13 122.455 29.817 125.944C 26.7656 129.084 23.8886 130.828 21.1859 132.398C 10.4625 138.765 -0.086646 137.544 0.000536683 138.591C 0.000536683 139.376 5.58023 139.812 9.59064 139.986C 12.2933 140.073 16.914 140.161 23.104 138.94C 32.6069 137.108 40.7149 133.096 41.8482 132.573C 44.9868 131.003 47.0792 129.694 50.8281 128.997C 54.2282 128.299 57.454 128.561 59.6335 128.648C 62.9465 128.822 63.9055 129.258 67.6543 129.694C 71.0545 130.131 74.193 130.479 77.8547 130.218C 82.9985 129.869 88.3166 129.52 92.5014 125.595C 95.2041 123.066 95.3784 120.973 98.1683 119.926C 98.9529 119.664 100.784 119.141 105.404 120.798C 112.118 123.153 112.728 125.857 116.913 126.816C 119.528 127.427 119.615 126.467 128.072 124.636C 138.098 122.455 142.196 122.891 143.678 123.066C 145.596 123.327 148.734 123.938 152.047 125.944C 153.093 126.555 157.365 129.258 156.929 131.613C 156.755 132.66 155.709 133.183 153.791 133.968C 148.386 136.323 143.939 137.457 143.591 137.544C 137.313 139.201 138.447 139.376 133.652 140.422C 128.595 141.556 126.067 142.167 123.451 142.167C 120.487 142.167 118.22 141.643 115.256 143.039C 114.21 143.562 112.989 144.086 112.118 145.394C 110.287 148.098 111.594 151.325 110.548 151.848C 109.153 152.546 106.538 146.964 103.748 147.574C 102.702 147.836 102.789 148.621 100.609 150.976C 97.9939 153.767 96.8605 153.68 96.6862 154.901C 96.4246 156.558 98.3427 157.256 100.173 161.355C 100.871 163.099 101.307 163.971 100.958 164.756C 100.435 166.239 98.4298 165.977 94.681 167.111C 92.4142 167.809 89.2756 168.768 86.6602 171.385C 85.8755 172.17 86.0499 172.17 83.3472 175.833C 83.3472 175.833 81.342 178.624 79.2496 181.154C 75.5008 185.863 69.2236 188.48 67.1312 189.352C 53.4435 195.37 41.0636 205.4 41.4995 206.447C 41.8482 207.319 50.4793 202.173 53.0948 205.226C 55.3616 207.93 51.3512 214.646 52.9205 215.867C 54.3154 216.913 57.5411 211.593 64.8645 207.145C 71.316 203.22 73.0597 204.79 79.1625 200.342C 81.8651 198.336 84.3062 196.504 86.8345 193.364C 89.1013 190.573 89.2757 189.265 91.2809 188.044C 92.6758 187.172 94.0707 186.823 100.261 186.997C 108.369 187.172 108.717 187.782 110.287 186.997C 112.205 186.038 113.687 183.334 116.738 177.926C 120.574 171.036 119.964 170.774 121.62 169.03C 126.241 164.146 133.041 164.059 134.523 164.059C 136.703 164.059 136.267 164.408 145.334 165.454C 149.519 165.89 150.914 165.977 152.396 165.105C 155.186 163.448 154.924 160.744 157.453 158.913C 159.806 157.256 162.858 157.692 167.043 159C 175.151 161.617 177.417 164.495 185.177 168.507C 193.546 172.868 192.413 170.338 205.49 175.92C 207.408 176.793 211.157 178.45 216.127 178.188C 218.568 178.101 221.357 178.014 223.45 175.92C 225.978 173.304 225.804 169.117 225.542 164.669C 225.281 159.087 223.886 154.639 222.491 150.714L 227.46 146.702L 243.763 139.288L 257.277 137.719C 257.277 138.067 257.364 138.416 257.364 138.765C 257.8 142.777 259.02 145.655 259.892 147.313C 263.728 154.813 270.877 158.913 277.154 159.61C 279.16 159.872 280.816 160.047 282.821 159.262C 288.401 157.168 289.97 150.191 291.975 150.714C 293.806 151.237 292.411 157.43 295.114 159.262C 297.904 161.093 300.868 155.773 308.627 154.465C 312.725 153.767 313.51 155.075 322.141 154.465C 327.197 154.116 328.418 153.592 329.377 152.72C 331.905 150.452 332.341 146.179 331.905 140.073C 331.121 128.473 328.156 119.664 327.197 116.96L 338.182 110.942L 353.003 110.245L 361.809 107.89L 372.794 107.89L 373.404 99.3423L 381.861 109.285L 401.39 108.936L 434.432 106.581L 459.279 100.389L 471.572 96.9874L 472.793 102.482L 485.347 104.575L 540.098 98.3829L 544.457 97.3362L 544.544 96.2024L 544.631 97.249L 548.99 98.2956L 603.741 104.488L 616.295 102.395L 617.516 96.9001L 629.809 100.302L 654.656 106.494L 687.698 108.849L 707.227 109.198L 715.684 99.255L 716.294 107.802L 727.279 107.802L 736.084 110.157L 750.905 110.855L 761.629 116.699C 760.496 119.839 757.88 128.299 757.095 139.288C 756.659 145.394 757.095 149.668 759.624 151.935C 760.583 152.807 761.803 153.331 766.86 153.68C 775.491 154.29 776.276 152.982 780.373 153.68C 788.22 154.988 791.097 160.308 793.887 158.477C 796.676 156.645 795.194 150.452 797.025 149.929C 798.943 149.406 800.512 156.383 806.179 158.477C 808.184 159.262 809.841 159.087 811.846 158.826C 818.123 158.128 825.359 154.028 829.108 146.528C 829.98 144.87 831.201 141.992 831.637 137.98C 831.637 137.631 831.724 137.282 831.724 136.934L 845.237 138.504L 861.54 145.917L 866.51 149.929C 865.028 153.854 863.72 158.302 863.458 163.884C 863.197 168.332 863.022 172.519 865.551 175.135C 867.643 177.229 870.433 177.316 872.874 177.403C 877.843 177.578 881.592 175.92 883.51 175.135C 896.501 169.466 895.367 172.083 903.824 167.722C 911.583 163.71 913.85 160.832 921.958 158.215C 926.143 156.907 929.194 156.471 931.548 158.128C 933.989 159.872 933.728 162.663 936.605 164.32C 938.087 165.192 939.482 165.105 943.666 164.669C 952.821 163.623 952.298 163.274 954.477 163.274C 955.959 163.274 962.759 163.361 967.38 168.245C 969.037 169.99 968.426 170.251 972.262 177.141C 975.314 182.549 976.796 185.253 978.714 186.212C 980.37 186.997 980.719 186.387 988.74 186.212C 994.843 186.038 996.325 186.387 997.72 187.259C 999.638 188.48 999.899 189.701 1002.17 192.579C 1004.69 195.806 1007.14 197.551 1009.84 199.557C 1015.94 204.092 1017.68 202.435 1024.14 206.36C 1031.46 210.808 1034.69 216.128 1036.08 215.082C 1037.65 213.948 1033.64 207.145 1035.91 204.441C 1038.52 201.388 1047.15 206.447 1047.5 205.662C 1047.94 204.615 1035.56 194.585 1021.87 188.567C 1019.78 187.608 1013.5 185.078 1009.75 180.369C 1007.75 177.839 1005.65 175.048 1005.65 175.048C 1002.95 171.385 1003.13 171.385 1002.34 170.6C 999.725 167.983 996.586 167.024 994.32 166.326C 990.571 165.192 988.566 165.454 988.042 163.971C 987.694 163.099 988.13 162.227 988.827 160.57C 990.658 156.383 992.489 155.773 992.314 154.116C 992.14 152.807 991.007 152.982 988.391 150.191C 986.124 147.836 986.299 146.964 985.253 146.789C 982.55 146.179 979.934 151.761 978.452 151.063C 977.406 150.54 978.714 147.313 976.883 144.609C 976.011 143.301 974.791 142.69 973.744 142.254C 970.78 140.858 968.601 141.382 965.549 141.382C 962.847 141.382 960.318 140.858 955.349 139.637C 950.554 138.591 951.687 138.329 945.41 136.759C 945.061 136.672 940.615 135.538 935.21 133.183C 933.292 132.398 932.245 131.788 932.071 130.828C 931.635 128.561 935.907 125.857 936.953 125.159C 940.179 123.066 943.318 122.542 945.323 122.281C 946.718 122.106 950.903 121.67 960.929 123.851C 969.385 125.682 969.472 126.642 972.088 126.031C 976.273 125.072 976.883 122.455 983.596 120.013C 988.217 118.356 990.048 118.879 990.832 119.141C 993.622 120.1 993.796 122.281 996.499 124.81C 1000.6 128.735 1005.91 129.084 1011.15 129.433C 1014.81 129.694 1018.03 129.346 1021.35 128.909C 1025.1 128.473 1026.05 128.037 1029.37 127.863C 1031.55 127.776 1034.77 127.514 1038.17 128.212C 1041.92 128.909 1044.01 130.218 1047.15 131.788C 1048.2 132.311 1056.31 136.236 1065.9 138.155C 1072.09 139.376 1076.71 139.288 1079.41 139.201C 1083.42 139.114 1089 138.591 1089 137.806C 1088.74 137.021 1078.28 138.242 1067.55 131.875Z" stroke="white" stroke-width="0.2356" stroke-miterlimit="10"/>
</g>
<g id="Group_2">
<g id="Group_3">
<path id="Vector_2" d="M 16.6008 0.970026C 19.4778 10.2152 22.2677 19.286 25.2319 28.7928C 27.4115 25.9146 28.4577 22.862 30.027 20.1582C 31.5963 17.4544 32.9912 14.5762 34.4733 11.7852C 36.0426 8.90694 37.5247 6.11594 39.1812 3.06328C 42.2326 3.15049 45.1096 3.23771 48.3353 4.1099C 47.8122 5.15653 47.4635 5.9415 47.0276 6.55203C 45.1968 9.08138 44.7609 11.9596 44.7609 15.0123C 44.7609 19.6349 44.5865 24.2575 44.5865 28.9673C 44.5865 32.1944 44.3249 35.5087 45.3711 38.6486C 45.8942 40.1313 46.5917 41.5268 47.3764 43.2712C 42.7557 43.7945 38.5709 42.8351 34.2117 42.4862C 34.1245 41.7884 34.0374 41.2651 33.9502 40.829C 38.0478 38.9102 38.1349 38.9102 38.3965 34.1132C 38.5709 29.4034 38.5709 24.6063 38.6581 19.8965C 38.7453 17.8033 38.9196 15.71 38.4837 13.5295C 34.2118 21.5537 29.8526 29.665 25.4935 37.7764C 24.2729 37.6892 23.3139 37.6019 22.0062 37.4275C 19.2163 28.7056 16.3393 20.0709 13.5494 11.3491C 13.375 11.3491 13.2879 11.4363 13.1135 11.4363C 12.5904 14.8378 12.0673 18.2394 11.5442 21.5537C 11.0211 24.868 10.5852 28.1823 10.0621 31.4966C 9.71337 33.8515 9.88778 36.1192 11.1955 38.2125C 11.4571 38.5613 11.4571 39.0847 11.6314 39.8696C 7.70821 40.829 4.0465 39.608 0.472005 39.5208C 0.210456 39.0847 0.036091 38.823 0.036091 38.5613C -0.0510917 38.2997 0.0361229 38.038 0.123306 37.6019C 0.559219 37.4275 0.907918 37.1658 1.34383 37.0786C 3.95931 36.5553 5.0927 34.8109 5.44143 32.3688C 6.05171 28.7056 6.48765 25.0424 7.09792 21.3792C 7.79539 17.28 8.49282 13.1807 9.19028 8.99416C 9.27746 8.29641 9.45187 7.51144 9.45187 6.81369C 9.62623 4.37156 9.27749 3.76103 7.09792 2.62718C 6.57483 2.36553 6.13888 2.10387 5.70297 1.84221C 5.70297 0.359494 6.48762 -0.0766025 7.621 0.0106163C 10.4108 0.446711 13.2879 0.708369 16.6008 0.970026Z" transform="translate(641.757 37.7957)" fill="#191965"/>
</g>
<g id="Group_4">
<path id="Vector_3" d="M 39.6681 40.0334C 38.8835 40.5568 38.3604 41.2545 37.7501 41.2545C 33.4781 41.2545 29.2062 41.1673 24.8471 41.0801C 24.6727 40.3823 24.5855 39.859 24.4112 39.2485C 24.9342 38.9868 25.283 38.7252 25.7189 38.6379C 27.9856 38.0274 29.0318 36.6319 29.0318 34.1898C 29.0318 27.3867 29.2934 20.5836 29.3806 13.3445C 27.1138 15.6122 25.1958 17.4438 23.2778 19.4498C 19.7033 23.113 16.3904 26.9506 12.7287 30.5266C 11.0722 32.0965 10.8978 33.9281 11.1594 35.8469C 11.2466 36.5447 11.944 37.3297 12.5543 37.7658C 13.1646 38.2891 14.0364 38.5507 14.7339 38.8996C 15.1698 40.3823 14.4724 40.9056 13.1646 40.8184C 9.06703 40.7312 4.9694 40.644 0.871817 40.5568C 0.523086 39.859 0.261538 39.3357 -1.06424e-05 38.7252C 0.34872 38.4635 0.523107 38.2891 0.784655 38.2019C 4.18478 37.1552 4.88223 36.4575 4.96942 32.8815C 5.14378 24.6829 5.23094 16.4844 5.49249 8.28579C 5.57967 5.14591 4.53348 3.31431 1.56927 2.44213C 1.3949 2.35491 1.22056 2.26769 1.04619 2.18047C 0.95901 2.09325 0.959021 2.00603 0.784655 1.8316C 0.784655 0.697752 1.30773 -6.65427e-07 2.61547 -6.65427e-07C 6.10278 0.0872182 9.5029 0.0872175 12.903 0.261655C 13.4261 0.261655 13.862 0.69775 14.2108 0.872188C 14.2108 1.22106 14.298 1.48272 14.298 1.56994C 12.0312 4.6226 11.3338 8.11135 11.421 11.8618C 11.5081 15.6994 11.3338 19.537 11.2466 23.2874C 11.2466 24.1596 11.2466 25.119 11.1594 25.9912C 11.3337 26.0784 11.5081 26.1657 11.6825 26.2529C 17.6981 20.1476 23.6265 13.8678 29.2934 7.67526C 29.1191 4.6226 29.119 4.6226 25.1958 2.35491C 25.283 1.8316 25.3702 1.22106 25.5445 0.436094C 29.9037 0.523312 34.0885 0.436095 38.7091 0.78497C 38.2732 1.8316 38.186 2.44213 37.8373 2.87822C 36.268 5.14591 35.5706 7.67526 35.4834 10.4663C 35.3962 18.2287 35.309 25.904 34.9603 33.6665C 34.8731 36.3703 35.5705 38.2019 38.3604 38.8124C 38.7963 39.1613 38.9707 39.4229 39.6681 40.0334Z" transform="translate(577.888 35.6259)" fill="#191965"/>
</g>
<g id="Group_5">
<path id="Vector_4" d="M 0.610279 39.6846C 0.435914 39.1613 0.174355 38.6379 -1.06424e-05 38.0274C 0.34872 37.853 0.610268 37.5913 0.871817 37.5913C 3.92321 37.5041 5.31817 35.9342 5.75408 32.6198C 6.80027 24.5957 7.93365 16.5716 9.24139 8.54745C 9.76449 5.49479 8.97981 3.48875 6.10278 2.26769C 5.84123 2.18047 5.66687 1.91881 5.23095 1.65716C 5.57968 1.04663 6.01561 0.523312 6.27716 -1.33085e-06C 12.6415 0.348874 17.2622 1.22107 18.8315 2.44213C 18.8315 2.61657 18.9187 2.87822 18.8315 2.96544C 16.1288 5.84366 15.0826 9.2452 14.6467 13.0828C 14.2979 16.746 13.6005 20.4964 13.0774 24.1596C 12.903 25.0318 12.8159 25.9912 12.6415 26.8634C 12.8159 26.9506 12.9902 27.1251 13.1646 27.2123C 19.8777 21.8919 26.5036 16.3971 32.8679 10.9896C 33.1294 7.8497 33.1294 7.84969 29.4677 5.23313C 29.6421 4.70982 29.7293 4.1865 29.9037 3.66319C 33.7397 3.48875 41.1503 4.79704 42.8067 6.0181C 42.6324 6.36698 42.458 6.80307 42.1965 7.15194C 40.0169 9.41963 39.0578 12.1234 38.6219 15.1761C 37.6629 22.5897 36.6168 29.9161 35.3962 37.3297C 34.8731 40.2079 35.3962 42.3011 38.2732 43.3478C 38.4476 43.435 38.5347 43.6094 38.6219 43.7839C 38.5347 44.9177 37.9245 45.441 36.7911 45.2666C 32.6935 44.656 28.5088 44.0455 24.324 43.435C 24.2368 42.7372 24.1496 42.2139 24.0625 41.6034C 24.5856 41.429 25.0214 41.1673 25.4574 41.0801C 27.9857 40.7312 29.0319 39.2485 29.3806 36.8064C 30.2524 30.1777 31.2986 23.5491 32.3448 16.3971C 29.8165 18.316 27.7241 19.9731 25.6317 21.7175C 21.7085 24.9446 17.7853 28.3461 13.7749 31.3988C 12.0312 32.7071 11.5081 34.277 11.5953 36.1958C 11.5953 36.9808 12.1184 37.9402 12.6415 38.5507C 13.1646 39.1613 13.9492 39.5101 14.7339 40.0334C 14.5595 40.5568 14.4723 41.0801 14.298 41.7778C 9.67729 41.0801 5.23096 40.3823 0.610279 39.6846Z" transform="translate(695.149 43.3011)" fill="#191965"/>
</g>
<g id="Group_6">
<path id="Vector_5" d="M 10.8979 26.9379C 17.0006 20.222 22.929 13.6806 28.6831 7.22642C 29.0318 3.82488 26.7651 2.9527 24.1496 2.25494C 24.4112 1.46997 24.5855 0.859442 24.8471 0.161691C 28.9447 0.161691 32.8679 0.161691 36.7039 0.161691C 37.0526 0.161691 37.4014 0.685005 37.7501 0.946662C 37.6629 1.29554 37.6629 1.64441 37.4886 1.81885C 35.0475 4.87151 34.6987 8.44748 34.6116 12.1107C 34.5244 18.6521 34.6116 25.1935 34.6116 31.6477C 34.6116 34.8748 35.0475 37.6658 38.9707 38.3635C 38.8835 39.1485 38.7963 39.5846 38.7091 40.2824C 34.0012 40.2824 29.555 40.2824 24.8471 40.2824C 24.6727 39.759 24.4983 39.2357 24.324 38.6252C 24.9342 38.3635 25.3702 38.0147 25.8933 37.8402C 27.6369 37.2297 28.7703 36.0086 28.7703 34.0898C 28.8575 27.0251 28.7703 19.9604 28.7703 12.1979C 27.5498 13.5934 26.8523 14.5528 26.0676 15.425C 23.9752 17.6927 21.97 19.9604 19.8777 22.2281C 17.3494 24.9318 14.8211 27.7228 12.2928 30.4266C 9.41572 33.4793 10.026 36.3575 13.862 38.1019C 14.1236 38.1891 14.3851 38.3635 14.7339 38.6252C 14.6467 39.1485 14.5595 39.759 14.4723 40.544C 10.1132 40.544 5.92841 40.544 1.83083 40.544C 0.697451 40.544 0.174355 39.9335 0.0871721 38.6252C 0.523086 38.4508 0.959031 38.1019 1.48213 38.0147C 3.92324 37.4914 4.70788 35.747 4.79506 33.4793C 4.88224 31.9966 4.79506 30.5138 4.79506 29.0311C 4.79506 22.4897 4.79506 15.9483 4.79506 9.49411C 4.79506 8.88358 4.79506 8.18582 4.79506 7.57529C 4.79506 5.3076 3.9232 3.56322 1.65645 2.86547C 1.13335 2.69104 0.61029 2.42938 1.06424e-05 2.16772C 0.261559 1.46997 0.523096 0.94666 0.697462 0.423347C 5.31815 -0.361623 12.0312 -0.012748 13.7749 1.1211C 13.6005 1.55719 13.4262 2.08051 13.0774 2.5166C 11.3338 5.04595 10.7235 8.01139 10.6363 10.9768C 10.4619 15.9483 10.6363 20.8326 10.6363 25.804C 10.5491 25.9785 10.6363 26.2401 10.8979 26.9379Z" transform="translate(535.518 34.7664)" fill="#191965"/>
</g>
<g id="Group_7">
<path id="Vector_6" d="M 41.8477 36.3606C 41.8477 37.0583 41.8477 37.7561 41.8477 38.7155C 37.4886 39.5877 33.3038 40.4599 29.119 41.2448C 28.16 41.4193 27.4626 40.8959 27.3754 39.7621C 27.7241 39.5004 28.16 39.1516 28.5959 38.8027C 30.9499 37.32 31.2114 36.7967 30.6883 33.9184C 30.0781 30.6913 29.4678 27.5515 28.7703 24.3244C 27.7241 19.1785 26.7651 14.1198 25.7189 8.97385C 25.5445 7.92722 25.283 6.79338 25.1086 6.09563C 23.7137 4.87457 22.5803 4.96178 21.2726 5.13622C 12.6415 6.53172 11.8568 6.79338 9.85164 8.71219C 10.026 9.6716 10.1132 10.7182 10.2876 11.8521C 11.8568 19.8762 13.6005 27.9003 14.9954 36.0117C 15.5185 38.8899 16.5647 40.7215 19.7033 40.8087C 19.9648 40.8087 20.2264 41.0704 20.5751 41.1576C 20.5751 41.6809 20.5751 42.2042 20.5751 42.6403C 16.9135 44.123 9.32855 45.4313 7.41053 44.7336C 7.5849 44.123 7.75927 43.5125 7.93363 42.902C 8.89264 40.3726 9.15418 37.8433 8.63108 35.2267C 7.32334 28.947 6.1028 22.6672 4.88224 16.3002C 4.27196 13.0731 3.13857 10.1949 0.697451 7.92722C 0.435903 7.66557 0.348731 7.31669 0 6.70616C 0.784645 6.35729 1.30773 6.00841 2.00519 5.83397C 11.6825 3.91516 21.3598 1.90912 31.0371 0.0775272C 31.7345 -0.0969105 32.432 0.0775272 33.391 0.0775272C 33.1294 1.03693 33.0423 1.64747 32.7807 2.17078C 31.6473 4.52569 31.5602 6.96782 31.9961 9.49716C 33.4782 17.1724 35.0475 24.8477 36.6167 32.5229C 37.227 36.0117 38.186 36.6222 41.8477 36.3606Z" transform="translate(334.387 48.6312)" fill="#191965"/>
</g>
<g id="Group_8">
<path id="Vector_7" d="M 19.9212 42.222C 9.37206 43.3559 2.0487 35.4189 0.566595 26.5226C -0.305233 21.3767 -0.305227 16.318 1.52561 11.4338C 3.87954 5.15399 8.32586 1.31636 15.0389 0.356957C 19.0493 -0.253575 23.0597 -0.253573 26.7214 1.75246C 30.6446 3.93293 33.6088 6.98559 35.3525 11.2593C 37.7064 17.3646 38.0552 23.5572 36.2243 29.8369C 34.0448 37.1633 27.942 42.0476 19.9212 42.222ZM 30.6447 20.9406C 30.7318 16.8413 29.5985 13.0037 27.7676 9.42772C 24.3675 2.97352 18.1775 2.10133 13.2081 4.97955C 10.9413 6.28784 9.45923 8.55553 8.41304 10.9977C 6.32065 15.9691 6.23348 21.2023 7.19249 26.3482C 7.6284 28.9647 8.67458 31.5813 10.0695 33.849C 12.2491 37.425 15.3877 39.3438 19.834 38.9077C 24.1059 38.4716 26.8958 36.3783 28.6394 32.6279C 30.2959 28.8775 31.1678 24.9527 30.6447 20.9406Z" transform="translate(416.993 38.7577)" fill="#191965"/>
</g>
<g id="Group_9">
<path id="Vector_8" d="M 0.570275 42.8245C 0.395909 41.7778 0.134356 40.8184 0.0471729 39.7718C -0.214375 37.1552 0.570264 36.3703 3.44729 36.3703C 4.4063 37.5913 5.3653 38.8996 6.32431 40.0334C 8.4167 39.5974 9.11418 38.3763 9.63727 36.8936C 10.7706 33.8409 10.8578 30.701 10.8578 27.5612C 10.8578 22.1536 10.8578 16.8332 10.5091 11.4257C 10.1604 6.71585 9.89882 6.62863 5.27814 5.75644C 5.10377 5.75644 5.01659 5.58201 4.84222 5.40757C 4.49349 4.44816 4.92939 3.83763 5.8884 3.48875C 6.4115 3.31432 6.93461 3.2271 7.54489 3.13988C 14.258 2.09325 20.971 1.13384 27.6841 0.0872182C 28.5559 -6.69326e-07 29.4278 6.65427e-07 30.6483 6.65427e-07C 30.3868 1.13385 30.2996 1.83159 30.038 2.52935C 28.9918 4.97147 28.7303 7.50082 29.1662 10.2046C 30.2996 17.3566 31.433 24.5957 32.392 31.7477C 32.8279 34.9748 33.6125 37.5041 37.7101 37.3297C 37.5357 38.2891 37.3614 38.8996 37.187 39.6846C 33.0894 40.2951 29.1662 40.9056 25.1558 41.5162C 24.0224 41.6906 23.1506 41.3417 22.9762 39.859C 23.325 39.5974 23.6737 39.1613 24.1968 38.8996C 26.2892 37.9402 26.8994 36.3703 26.5507 34.1026C 25.1558 25.4679 23.9352 16.746 22.6275 8.11135C 22.4531 7.06473 22.0172 6.0181 21.7557 5.14591C 19.2274 4.53538 17.0478 4.70982 14.6939 6.19254C 14.6939 7.76248 14.6067 9.50685 14.6939 11.2512C 15.1298 17.6182 15.3913 24.0724 14.781 30.4394C 14.6067 32.5326 14.2579 34.7131 13.822 36.8064C 13.4733 38.8124 12.6015 40.4695 11.3809 42.0395C 8.85263 45.2666 5.27814 45.8771 1.79083 43.5222C 1.26773 43.2605 0.919006 42.9989 0.570275 42.8245Z" transform="translate(378.454 43.3883)" fill="#191965"/>
</g>
<g id="Group_10">
<path id="Vector_9" d="M 15.4314 4.27331C 15.257 5.23272 15.0826 6.1049 14.9082 7.06431C 13.862 14.7396 12.9031 22.4148 11.7697 30.0901C 11.3338 33.0555 11.5953 35.8465 12.903 38.5503C 13.0774 38.8992 13.0774 39.2481 13.2518 39.8586C 12.5543 40.033 12.0312 40.4691 11.4209 40.3819C 7.75925 39.9458 4.01038 39.4225 0.34871 38.8992C 0.174344 38.2014 0.0871934 37.6781 1.06424e-05 37.0676C 0.523107 36.8932 0.958999 36.6315 1.39491 36.5443C 3.74885 36.1082 4.96943 34.7127 5.23098 32.3578C 6.45153 23.3742 7.6721 14.4779 8.89266 5.49437C 8.97984 5.1455 8.89266 4.79662 8.89266 4.44775C 7.84647 2.79059 4.5335 4.53497 4.62069 1.22065C 4.96942 1.04622 5.31816 0.697339 5.66689 0.61012C 12.2928 -0.523725 18.8314 -0.0876319 25.1958 2.00562C 29.9037 3.57556 34.2628 9.50644 33.0422 15.3501C 32.6935 17.0945 32.3448 18.8389 31.6473 20.4088C 29.2062 25.7291 23.6265 27.3863 19.7033 26.7758C 17.9596 26.5141 16.216 26.2525 14.5595 25.6419C 12.9902 25.0314 12.9902 24.2464 14.2108 22.6765C 14.5595 22.6765 14.9083 22.6765 15.257 22.7637C 20.4008 24.4209 24.4112 22.6765 26.1548 17.705C 27.1138 14.914 27.2882 12.0358 26.242 9.24478C 24.6727 4.62218 20.488 2.61615 15.4314 4.27331Z" transform="translate(741.269 50.6279)" fill="#191965"/>
</g>
<g id="Group_11">
<path id="Vector_10" d="M 23.5524 14.3039C 23.9883 12.2106 24.5114 10.379 24.6858 8.63467C 24.8602 6.36698 23.3781 4.44816 21.2857 3.75041C 16.7522 2.26769 12.1315 4.01207 9.95195 7.8497C 8.38266 10.6407 7.42361 13.6934 7.07488 16.8332C 6.55178 21.8047 6.90051 26.689 9.25445 31.2243C 13.2649 38.9868 21.8088 38.8124 27.2141 34.1898C 27.9116 33.5793 28.3475 32.7071 29.1322 31.7477C 30.1783 32.6199 30.7886 33.1432 31.486 33.8409C 28.9577 38.1146 25.5576 40.8184 21.0241 41.5162C 14.3982 42.5628 8.64421 40.8184 4.28507 35.4109C 2.10551 32.6198 0.972109 29.3927 0.449013 25.904C -0.422815 20.322 -0.161277 14.74 2.45421 9.50685C 5.59278 3.31432 10.5622 1.33085e-06 17.624 1.33085e-06C 21.1113 1.33085e-06 24.5114 0.436093 27.4757 2.35491C 31.6604 4.97147 32.0963 10.8151 28.1731 13.6934C 26.7782 14.6528 25.2089 15.0889 23.5524 14.3039Z" transform="translate(459.481 36.1492)" fill="#191965"/>
</g>
<g id="Group_12">
<g id="Group_13">
<path id="Vector_11" d="M 4.27198 4.1865C 2.6155 3.48875 1.39492 2.96544 0 2.44213C 0.174365 1.8316 0.435924 1.22106 0.61029 0.523312C 4.70788 0.348875 8.5439 0.0872195 12.4671 6.65427e-07C 12.8159 6.65427e-07 13.2518 0.436096 13.5133 0.610533C 13.5133 0.959409 13.6005 1.13385 13.5133 1.30828C 11.0722 5.14591 10.8979 9.33242 11.0722 13.6934C 11.3338 19.1881 11.5953 24.6829 11.8568 30.1777C 11.8568 30.5266 11.8569 30.9627 11.944 31.3116C 12.0312 34.5387 12.5543 37.5913 16.6519 38.1146C 16.5647 38.8996 16.5647 39.3357 16.4776 40.0334C 11.8569 40.2951 7.32335 40.4695 2.61548 40.7312C 2.35393 40.2079 2.00522 39.6846 1.65649 39.074C 2.09241 38.8124 2.35391 38.5507 2.70264 38.4635C 5.84122 37.1552 6.36435 36.3703 6.27717 32.9687C 6.18998 29.9161 6.01562 26.8634 5.84125 23.7235C 5.57971 18.6648 5.40532 13.6934 5.05659 8.63466C 4.9694 7.06473 4.53352 5.66923 4.27198 4.1865Z" transform="translate(494.803 35.9747)" fill="#191965"/>
</g>
<g id="Group_14">
<path id="Vector_12" d="M 2.26673 19.6242C 4.70785 16.1355 7.23617 12.8212 9.5901 9.33242C 11.7697 6.19254 11.6825 5.75644 10.2004 1.48272C 11.5953 -0.261655 13.6005 0.523313 15.3441 0.261657C 17.0878 0.0872189 18.8315 0.0872195 20.6623 6.65427e-07C 20.9239 0.697751 21.0982 1.22106 21.2726 1.56994C 21.0982 1.8316 21.0111 2.09325 20.8367 2.18047C 18.4828 3.05266 16.8263 4.6226 15.4314 6.71585C 12.4671 11.2512 9.24139 15.6994 6.01563 20.4964C 6.62591 20.7581 7.14899 21.0197 7.58491 21.107C 10.5491 21.9791 12.38 24.2468 13.8621 26.7762C 15.4314 29.3928 16.9134 32.0965 18.3955 34.8003C 20.052 37.6785 20.1392 37.7658 23.4522 37.3297C 24.324 38.8124 24.2368 39.2485 22.929 40.1207C 20.2264 42.0395 15.3442 41.4289 13.2518 38.8124C 12.4671 37.853 11.7697 36.7191 11.0722 35.5853C 9.41575 32.7071 7.75926 29.7416 6.10279 26.8634C 5.0566 24.9446 3.48732 23.5491 1.48212 22.6769C 0.348742 22.1536 0.348731 22.1536 0 20.5836C 0.610279 20.322 1.30772 19.9731 2.26673 19.6242Z" transform="translate(507.445 34.6665)" fill="#191965"/>
</g>
</g>
<g id="Group_15">
<path id="Vector_13" d="M 2.12848e-05 6.65427e-07C 2.6155 0.174438 4.62069 0.436094 6.62589 0.523312C 8.10799 0.610531 9.5901 0.69775 10.985 0.523312C 12.9902 0.348875 14.9954 0.261657 17.0878 0.697751C 14.0364 4.53538 3.6617 4.36094 2.12848e-05 6.65427e-07Z" transform="translate(588.873 28.9973)" fill="#191965"/>
</g>
</g>
<g id="Group_16">
<path id="Vector_14" d="M 2.17957 2.26769C 1.48211 1.8316 0.871806 1.3955 0.0871614 0.959407C 0.0871614 0.78497 0.174355 0.523313 0.261538 0.0872188C 0.697451 0.0872188 1.0462 -5.32342e-06 1.48212 -5.32342e-06C 2.78986 -5.32342e-06 4.18476 -5.32342e-06 5.4925 -5.32342e-06C 6.0156 -5.32342e-06 6.45152 5.35461e-06 6.5387 0.610537C 6.10279 1.48273 5.57967 2.26769 5.31812 3.2271C 5.05658 4.09929 4.96943 5.0587 4.96943 6.0181C 4.88224 8.02414 4.96943 10.0302 4.96943 12.0362C 4.96943 12.2106 5.05662 12.3851 5.1438 12.734C 8.02083 9.50685 10.8979 6.45419 13.6877 3.48875C 13.6005 3.05265 13.5133 2.61657 13.4262 2.09325C 12.9031 1.8316 12.2928 1.56993 11.6825 1.30828C 11.5953 0.34887 11.6825 0.174443 12.38 0.174443C 14.0364 0.174443 15.6057 0.174443 17.2622 0.174443C 17.5237 0.174443 17.7853 0.4361 18.134 0.610537C 17.8724 1.04663 17.6109 1.48272 17.4365 1.8316C 16.9134 2.791 16.6519 3.7504 16.6519 4.79703C 16.6519 8.89632 16.6519 12.9956 16.7391 17.0949C 16.9135 18.2287 18.5699 17.9671 18.7443 19.1009C 17.6981 19.4498 13.4262 19.537 11.6825 19.2754C 11.6825 19.1881 11.5953 19.0137 11.5081 18.9265C 11.5081 18.7521 11.5081 18.6648 11.5953 18.4904C 12.3799 18.2287 13.339 18.0543 13.5133 16.9205C 13.6005 16.2227 13.7749 15.5249 13.7749 14.8272C 13.7749 13.2573 13.7749 11.6873 13.7749 10.1174C 13.7749 8.89632 13.7749 7.76247 13.7749 6.54141C 12.903 7.06472 5.57968 15.0016 5.05659 15.961C 5.14377 16.4844 5.23097 17.0949 5.40534 17.7926C 6.01562 18.1415 6.62588 18.4904 7.23616 18.752C 7.06179 19.4498 6.71308 19.537 6.27717 19.537C 4.35915 19.537 2.35393 19.537 0.435914 19.537C 0.261548 19.2754 0.174365 19.0137 0 18.752C 0.174365 18.6648 0.261569 18.5776 0.348752 18.4904C 0.6103 18.4032 0.95901 18.2287 1.30774 18.1415C 1.91802 17.8799 2.26673 17.4438 2.26673 16.6588C 2.17955 11.6873 2.17957 7.15194 2.17957 2.26769Z" transform="translate(563.243 132.962)" fill="white"/>
<path id="Vector_15" d="M -1.06424e-05 17.9706C 0.174355 17.8834 0.261559 17.7961 0.348742 17.7961C 2.70268 17.36 3.74887 15.7029 4.27196 13.6096C 4.6207 12.1269 4.88221 10.6442 5.05658 9.16146C 5.31813 7.59153 5.40534 5.93437 5.57971 4.36443C 5.57971 3.92833 5.66687 3.49224 5.66687 3.05615C 5.66687 2.18396 5.31817 1.57343 4.44634 1.31177C 4.09761 1.13733 3.5745 1.22455 3.40014 0.614015C 3.5745 -0.0837354 4.09757 0.00348609 4.62066 0.00348609C 7.23615 0.00348609 9.85163 0.00348609 12.4671 0.00348609C 13.6005 0.00348609 14.6467 0.00348609 15.7801 0.00348609C 16.1288 0.00348609 16.4776 0.0907023 17.0878 0.177921C 16.8263 0.701234 16.7391 1.22455 16.4775 1.57343C 15.8673 2.44562 15.6929 3.49224 15.6929 4.53886C 15.6929 8.20205 15.6929 11.8653 15.6929 15.5284C 15.6929 17.0112 15.9545 17.36 17.3494 17.7089C 17.6981 17.7961 17.9596 17.7961 18.4827 17.8834C 18.4827 18.8428 18.4827 19.7149 18.5699 20.6744C 18.5699 21.6338 18.5699 22.5932 18.5699 23.6398C 18.2212 23.8142 17.7853 23.9887 17.4365 24.1631C 17.2622 23.9887 17.175 23.8142 17.175 23.727C 16.9135 22.942 16.6519 22.0699 16.3903 21.2849C 15.8672 19.8022 14.7339 19.1044 13.2518 19.0172C 10.5491 18.93 7.93362 19.0172 5.23095 19.0172C 3.92321 19.0172 2.96419 19.715 2.4411 20.8488C 2.00518 21.8954 1.56927 22.942 1.13335 24.1631C 0.784623 23.9887 0.34872 23.9014 -1.06424e-05 23.727C -1.06424e-05 21.721 -1.06424e-05 19.8894 -1.06424e-05 17.9706ZM 12.4671 17.0984C 12.5543 16.0518 12.8159 15.2668 12.8159 14.3946C 12.8159 11.0803 12.8159 7.76597 12.8159 4.45165C 12.8159 3.7539 12.7287 3.05614 12.4671 2.35839C 12.3799 2.00952 12.0312 1.57343 11.7697 1.57343C 10.5491 1.48621 9.24137 1.13734 8.02081 2.09675C 8.02081 3.05615 8.02083 4.01556 7.93365 4.88775C 7.84647 6.10881 7.58489 7.4171 7.41052 8.63816C 7.14897 10.1209 6.88746 11.6036 6.62591 13.0863C 6.27718 14.6563 5.57968 16.0518 4.35913 17.36C 6.88743 17.36 9.15421 17.36 11.421 17.36C 11.6825 17.4473 12.0312 17.2728 12.4671 17.0984Z" transform="translate(543.452 133.22)" fill="white"/>
<path id="Vector_16" d="M 11.5953 10.0302C 12.38 10.6407 13.1646 11.2512 13.862 11.949C 14.2108 12.2979 14.5595 12.9084 14.7339 13.4317C 15.4313 16.4844 14.0364 18.9265 11.0722 19.6242C 10.3747 19.7987 9.5901 19.8859 8.80546 19.8859C 6.45152 19.8859 4.0104 19.8859 1.65646 19.8859C 1.22055 19.8859 0.784634 19.7987 0.34872 19.7987C 0.34872 19.4498 0.261559 19.1882 0.261559 18.8393C 2.0924 18.5776 2.26675 17.3566 2.26675 15.7866C 2.17957 11.8618 2.26675 7.8497 2.26675 3.92485C 2.26675 3.48875 2.26677 2.96544 2.17959 2.44213C 1.56931 2.35491 1.04621 2.35491 0.435935 2.2677C 0.261569 2.00604 0.087204 1.65716 2.12848e-05 1.39551C 0.174387 1.22107 0.261538 1.04662 0.34872 1.04662C 1.91801 0.52331 3.48733 0.0872188 5.23099 0C 6.19 0 7.23616 0 8.19517 0C 10.2004 0.0872188 11.944 0.784972 13.1646 2.44213C 14.2108 3.75041 14.298 5.32034 13.862 6.89028C 13.5133 8.373 12.6415 9.33242 11.5953 10.0302ZM 5.84122 9.33241C 8.28234 9.41963 10.5491 9.07076 11.1594 6.19254C 11.3338 5.14592 10.8107 3.13987 9.85166 2.52934C 8.28237 1.48271 6.97463 1.3955 5.49252 2.44213C 5.49252 2.79101 5.49252 3.31432 5.49252 3.75041C 5.49252 7.58804 5.49252 11.3384 5.49252 15.1761C 5.49252 15.5249 5.49252 15.8738 5.49252 16.1355C 5.57971 17.1821 6.10277 17.9671 7.14896 18.2287C 10.2004 19.1009 12.0312 16.9205 11.944 14.2167C 11.8568 12.5595 10.6363 11.4257 8.97983 11.0768C 8.45674 10.9896 7.84644 10.9023 7.32334 10.8151C 6.80024 10.7279 6.36432 10.5535 5.84122 10.4663C 5.75404 10.0302 5.75404 9.76851 5.84122 9.33241Z" transform="translate(507.358 132.177)" fill="white"/>
<path id="Vector_17" d="M 16.6519 18.7521C 15.6929 19.0137 11.8568 19.1009 9.85163 18.8393C 9.76444 18.752 9.6773 18.6648 9.6773 18.4904C 9.6773 18.316 9.6773 18.2287 9.6773 18.0543C 9.76449 17.9671 9.76444 17.7926 9.85163 17.7926C 11.5081 17.4438 11.8569 16.2227 11.8569 14.8272C 11.8569 13.5189 11.8569 12.2979 11.8569 10.9896C 11.8569 8.8091 11.8569 6.71585 11.8569 4.53538C 11.8569 3.83763 11.6825 3.13987 11.5953 2.44212C 11.5081 1.83159 11.1594 1.48272 10.5491 1.48272C 8.80548 1.48272 7.14898 1.48272 5.40533 1.48272C 5.14378 1.48272 4.88223 1.65716 4.5335 1.83159C 4.44632 2.52934 4.27196 3.13988 4.27196 3.83763C 4.27196 7.50082 4.27196 11.0768 4.27196 14.74C 4.27196 15.525 4.44632 16.3099 4.5335 17.1821C 5.23096 17.4438 5.84125 17.7054 6.45153 17.9671C 6.6259 18.4904 6.36434 18.7521 5.84124 18.9265C 5.31815 19.1009 0.697451 18.9265 -1.06424e-05 18.7521C 0.0871721 18.4904 0.087188 18.2287 0.261553 17.9671C 1.13338 16.746 1.39492 15.4377 1.39492 13.955C 1.39492 11.0768 1.39492 8.19857 1.39492 5.40757C 1.39492 3.83763 1.13338 2.26769 0.174365 0.959405C 0.0871827 0.784967 0.0871721 0.523313 -1.06424e-05 0.348875C 1.13336 0 8.28237 -0.0872215 15.1698 0.0872162C 15.5185 0.0872162 15.8672 0.174432 16.3903 0.261651C 16.3031 0.610527 16.3032 0.872191 16.1288 1.04663C 15.1698 2.09325 14.9083 3.40153 14.9083 4.70982C 14.9083 8.37301 14.9083 11.949 14.9083 15.6122C 14.9083 16.746 14.9954 17.7054 16.3903 17.9671C 16.6519 17.9671 16.8263 18.316 16.6519 18.7521Z" transform="translate(439.704 133.137)" fill="white"/>
<path id="Vector_18" d="M 0.0670772 9.60119C -0.194471 7.85682 0.328647 5.938 1.28766 4.1064C 2.76976 1.48984 4.94934 0.0943387 8.00074 0.00711991C 9.30848 0.00711991 10.6162 -0.0801043 11.924 0.35599C 13.9292 1.05374 15.4112 2.27481 16.3703 4.1064C 18.2883 7.94403 18.3755 11.7817 16.3703 15.6193C 14.9753 18.4103 12.5342 19.7186 9.39564 19.8058C 7.91353 19.8058 6.43145 19.8058 4.94934 19.1953C 2.76977 18.1486 1.462 16.4043 0.502991 14.2238C -0.0201055 12.8283 0.0670772 11.3456 0.0670772 9.60119ZM 3.20569 10.2989C 3.1185 12.1305 3.4672 13.9621 4.42621 15.7937C 5.82114 18.4103 8.87258 19.0208 11.2265 17.5381C 12.7958 16.5787 13.4932 15.096 13.9292 13.526C 14.3651 11.8689 14.6266 10.2117 14.3651 8.38013C 14.1035 6.81019 13.6676 5.32747 12.8829 3.93197C 11.8368 2.01315 9.91874 1.22819 8.0879 1.57706C 6.34424 1.92594 5.0365 2.97256 4.16468 4.62972C 3.46721 6.3741 3.1185 8.20569 3.20569 10.2989Z" transform="translate(524.466 132.606)" fill="white"/>
<path id="Vector_19" d="M 4.83555 0.872183C 5.00991 0.523308 5.18426 0.261657 5.35862 0.0872188C 5.44581 0 5.62017 -5.32342e-06 5.79454 -5.32342e-06C 9.63058 -5.32342e-06 13.3795 0 17.2155 0.0872188C 17.3027 0.0872188 17.3899 0.174435 17.477 0.261654C 17.477 0.436092 17.477 0.610535 17.3898 0.784972C 16.2565 2.26769 16.0821 4.01207 16.0821 5.75644C 16.0821 8.89632 16.1693 11.949 16.0821 15.0889C 16.0821 16.746 16.2565 18.0543 18.1745 18.4032C 18.1745 19.0137 17.9129 19.2754 17.3898 19.2754C 15.559 19.2754 13.641 19.2754 11.8102 19.2754C 11.2871 19.2754 10.9383 19.0137 10.9383 18.316C 11.5486 18.0543 12.1589 17.8799 12.8564 17.531C 12.9436 16.746 13.1179 15.9611 13.1179 15.1761C 13.1179 11.4257 13.1179 7.76248 13.1179 4.01207C 13.1179 3.31432 12.9436 2.61656 12.8564 2.00603C 11.1999 1.30828 11.1127 1.30829 9.45622 1.91882C 9.36904 2.79101 9.28183 3.66319 9.10747 4.6226C 9.02029 5.66922 8.93314 6.80306 8.75877 7.84969C 8.41004 10.2046 8.14846 12.5595 7.36381 14.8272C 7.01508 15.8738 6.57917 16.8332 6.05607 17.7926C 5.27143 19.3626 3.44063 19.7115 1.95853 19.4498C 0.389239 19.1009 -0.308255 17.531 0.127659 16.1355C 0.302024 15.6122 0.650744 15.1761 1.26102 15.1761C 1.8713 15.1761 2.22008 15.525 2.39444 16.0483C 2.56881 16.3971 2.74315 16.8332 2.91752 17.1821C 2.91752 17.2693 3.09187 17.2693 3.17905 17.3566C 3.9637 17.2693 4.574 16.746 4.83555 15.961C 5.27146 14.4783 5.79453 12.9956 6.05607 11.4257C 6.4048 9.50685 6.66635 7.50082 6.9279 5.49478C 7.01508 4.53538 7.01511 3.48876 7.01511 2.52935C 7.01511 1.91882 6.66638 1.56993 6.14329 1.30828C 5.88174 1.22106 5.44583 1.13384 4.83555 0.872183Z" transform="translate(614.813 132.962)" fill="white"/>
<path id="Vector_20" d="M 11.5081 12.734C 11.0722 12.9956 10.7235 13.17 10.3748 13.3445C 9.59012 11.4257 9.06698 11.0768 7.06178 11.0768C 6.53868 11.0768 6.0156 11.0768 5.4925 11.0768C 5.14377 12.1234 5.14376 15.961 5.31813 17.7926C 5.75404 18.316 6.27716 18.4032 6.97462 18.4032C 7.84645 18.4032 8.80543 18.4032 9.67726 18.4032C 10.8978 18.4032 11.6825 17.8799 12.0312 16.746C 12.1184 16.3971 12.2928 16.0483 12.4671 15.525C 12.903 15.6122 13.2518 15.6994 13.7749 15.7866C 13.6877 17.4438 14.1236 18.9265 13.3389 20.5837C 11.5953 19.6242 9.93885 19.8859 8.1952 19.8859C 5.92845 19.8859 3.66167 19.8859 1.30774 19.8859C 0.784645 19.8859 0.261548 19.9731 0 19.1881C 0.174365 19.1009 0.261548 18.9265 0.435914 18.8393C 1.91802 18.4904 2.17957 17.4438 2.17957 16.1355C 2.17957 14.3911 2.17957 12.6467 2.17957 10.8151C 2.17957 9.50685 2.17957 8.11135 2.17957 6.80307C 2.17957 4.79704 1.91803 2.87823 0.61029 1.39551C 0.871838 0.697756 1.3949 0.872188 1.83082 0.872188C 3.83602 0.872188 5.84124 0.872188 7.84645 0.872188C 9.50292 0.872188 11.1594 0.78497 12.6415 0C 13.1646 0.0872188 13.4262 0.436089 13.4262 0.784964C 13.4262 2.18047 13.4262 3.57597 13.4262 4.97147C 12.9902 5.14591 12.6415 5.23313 12.2927 5.40757C 12.2056 5.23313 12.1184 5.14591 12.0312 5.0587C 11.8568 4.6226 11.7697 4.18651 11.5953 3.75041C 11.2466 2.87822 10.5491 2.35491 9.5901 2.35491C 8.63109 2.35491 7.58488 2.26769 6.62587 2.35491C 5.66686 2.44212 5.23096 2.87822 5.23096 3.83762C 5.14378 5.66922 5.23096 7.4136 5.23096 9.41964C 6.27716 9.41964 7.23617 9.41963 8.28236 9.50685C 9.41574 9.59407 9.93882 8.46023 10.7235 8.11135C 11.3337 8.19857 11.5081 8.54744 11.5081 9.07075C 11.5081 10.2918 11.5081 11.5129 11.5081 12.734Z" transform="translate(491.316 132.177)" fill="white"/>
<path id="Vector_21" d="M 9.50291 11.2512C 8.10798 10.5535 6.71306 10.7279 5.14377 10.8151C 5.14377 13.17 4.79503 15.4377 5.40531 17.7054C 6.71305 18.316 9.5901 18.316 11.4209 17.7054C 11.7697 17.0077 12.1184 16.2227 12.4671 15.4377C 12.7287 15.4377 13.0774 15.4377 13.5133 15.3505C 13.6005 17.0077 13.6005 18.4904 13.5133 20.1476C 13.0774 20.1476 12.7287 20.2348 12.6415 20.1476C 11.9441 19.6242 11.2466 19.7115 10.4619 19.7115C 7.41055 19.7115 4.35916 19.7115 1.30776 19.7115C 0.784666 19.7115 0.087204 19.7987 2.12848e-05 18.9265C 1.83086 18.6648 2.17959 17.4438 2.17959 15.6994C 2.09241 12.4723 2.09241 9.33241 2.17959 6.10531C 2.17959 4.53537 1.91802 2.96544 0.95901 1.65716C 0.871827 1.48272 0.784655 1.22106 0.697473 0.872183C 1.30775 0.872183 1.74368 0.784972 2.17959 0.784972C 4.18479 0.784972 6.27718 0.784972 8.28238 0.784972C 9.32857 0.784972 10.3747 0.610532 11.4209 0.523313C 11.8569 0.436094 12.2056 0.174432 12.5543 -5.32342e-06C 13.1646 0.0872135 13.339 0.523318 13.339 1.04663C 13.339 2.35491 13.339 3.57598 13.339 4.97148C 12.9902 5.14592 12.7287 5.32035 12.2056 5.49478C 12.0312 4.97147 11.9441 4.53539 11.7697 4.09929C 11.5953 3.6632 11.3337 3.2271 11.0722 2.79101C 9.24135 2.09326 7.41054 2.26769 5.49252 2.52935C 4.6207 4.79704 5.23097 7.06472 5.05661 9.41963C 7.06181 9.33241 9.06703 10.1174 10.4619 8.02414C 10.7235 8.02414 10.8979 8.11135 11.1594 8.11135C 11.4209 9.68129 11.1594 11.164 11.2466 12.734C 10.8978 12.9084 10.6363 13.0828 10.2004 13.2573C 10.026 12.3851 9.76446 11.8618 9.50291 11.2512Z" transform="translate(599.772 132.526)" fill="white"/>
<path id="Vector_22" d="M 0.348742 18.9614C 0.174376 18.6997 0.0871721 18.4381 -1.06424e-05 18.1764C 0.174355 18.002 0.261559 17.9148 0.348742 17.8275C 0.61029 17.7403 0.871806 17.6531 1.13335 17.5659C 1.918 17.3042 2.17956 16.6937 2.17956 15.9087C 2.17956 14.1643 2.17956 12.42 2.17956 10.5884C 2.17956 8.23346 2.17956 5.79133 2.17956 3.43642C 2.17956 1.86648 2.09239 1.77926 0.610279 1.16873C 0.435914 1.08151 0.261538 0.9943 -1.06424e-05 0.907081C 0.0871721 0.645425 0.174344 0.383766 0.261527 0.209328C 2.4411 -0.139547 5.75408 -0.052326 6.62591 0.470987C 5.1438 2.3898 5.05658 4.65749 5.05658 6.92518C 5.05658 8.84399 5.05658 10.85 5.05658 12.7688C 5.05658 13.7282 5.23096 14.7749 5.40533 15.7343C 5.57969 16.8681 7.14898 17.6531 8.45673 17.4787C 10.4619 17.1298 11.5953 15.7343 11.5953 13.7282C 11.5953 13.1177 11.5953 12.5072 11.421 11.8966C 10.8979 10.1523 8.80544 9.01842 6.97461 9.45452C 6.36433 9.62895 5.75408 9.80339 5.31817 9.01842C 5.57972 8.23345 6.18998 7.88459 6.88745 7.88459C 8.89265 7.71015 10.7235 7.88458 12.4671 9.10565C 14.4723 10.5011 15.0826 13.1177 14.5595 15.0365C 13.8621 17.5659 12.5543 18.6997 9.76447 18.9614C 6.71307 19.223 3.48732 18.9614 0.348742 18.9614Z" transform="translate(634.994 133.102)" fill="white"/>
<path id="Vector_23" d="M 5.84122 14.7813C 5.66686 15.3918 5.49251 15.9151 5.31815 16.6129C 5.49251 16.9617 5.66687 17.3106 6.0156 17.8339C 8.0208 17.049 8.63109 15.3046 9.24137 13.6474C 7.0618 10.3331 4.96939 6.93157 2.78983 3.61725C 2.4411 3.00672 2.00521 2.39619 1.5693 1.87288C 1.13339 1.34956 0.6103 1.00069 2.12848e-05 0.477382C 0.174387 0.302944 0.348731 0.128498 0.523096 0.128498C 2.70266 0.128498 4.88223 0.128498 7.0618 0.128498C 7.23617 0.390155 7.32334 0.564603 7.32334 0.739041C 7.32334 0.913479 7.32334 1.08791 7.32334 1.34957C 6.88743 1.52401 6.45151 1.78566 6.0156 1.9601C 5.75405 2.65785 5.84124 3.3556 6.18997 3.87891C 7.5849 6.1466 9.06698 8.32708 10.6363 10.682C 11.5953 8.67595 12.4671 6.84435 13.2518 5.01276C 13.5133 4.31501 13.6005 3.44282 13.6877 2.57063C 13.0774 2.04732 12.5543 1.69845 11.944 1.17514C 11.944 0.913479 11.944 0.651817 11.944 0.215723C 12.2927 0.128504 12.6415 0.0412875 12.9031 0.0412875C 16.8263 -0.0459313 16.8263 -0.0459393 17.5237 0.564593C 15.5185 3.87891 14.2108 7.54211 12.6415 11.1181C 11.8569 12.9497 10.8979 14.8685 10.026 16.6129C 9.67731 17.2234 9.32855 17.8339 8.80546 18.3572C 7.41053 19.7527 5.40535 19.7528 3.92324 19.055C 2.87705 18.5317 2.61546 17.5723 2.78983 16.4384C 2.96419 15.3918 3.83604 14.6941 4.88223 14.6068C 5.0566 14.6941 5.40531 14.7813 5.84122 14.7813Z" transform="translate(457.228 132.834)" fill="white"/>
<path id="Vector_24" d="M 1.24235 5.49479C 0.893623 5.40757 0.632085 5.40756 0.108989 5.32034C -0.0653764 3.83762 0.0217744 2.52935 0.0217744 1.13385C 0.0217744 0.697756 0.0217851 0.697753 0.632064 2.66171e-06C 2.20135 0.95941 3.945 0.872191 5.68865 0.872191C 6.90921 0.872191 8.12981 0.872191 9.43755 0.872191C 11.1812 0.872191 12.9248 0.95941 14.4069 2.66171e-06C 15.1916 0.17444 15.1916 0.610537 15.1916 1.13385C 15.1916 2.35491 15.1916 3.57597 15.1916 4.97147C 14.8429 5.14591 14.4941 5.32035 14.1454 5.49479C 13.971 5.40757 13.8839 5.32035 13.7967 5.23313C 13.7095 5.0587 13.6223 4.79704 13.5351 4.53538C 12.8376 2.52935 12.4018 2.26768 10.3094 2.26768C 10.0478 2.26768 9.78628 2.35491 9.43755 2.35491C 9.00164 3.05266 8.82726 3.75041 8.82726 4.53538C 8.82726 8.37301 8.82726 12.1234 8.82726 15.9611C 8.82726 16.6588 9.0016 17.3566 9.17596 18.1415C 9.78624 18.4904 10.3965 18.752 11.094 19.1009C 11.094 19.3626 11.094 19.537 11.094 19.7987C 9.96062 20.1476 5.86304 20.1476 4.72966 19.7987C 4.64248 19.2754 4.99119 18.8393 5.25274 18.4032C 5.77584 17.6182 5.95024 16.8332 5.95024 15.9611C 5.95024 11.7745 5.95024 7.58804 5.95024 3.40153C 5.95024 3.13988 5.86305 2.87822 5.77587 2.52934C 4.64249 2.09325 3.59629 2.26768 2.55009 2.70378C 1.5039 3.22709 1.76545 4.53538 1.24235 5.49479Z" transform="translate(583.359 132.003)" fill="white"/>
<path id="Vector_25" d="M 2.09237 2.79101C 1.74364 3.57598 1.30774 4.44816 0.95901 5.32035C 0.348731 5.40757 2.12848e-05 5.14591 2.12848e-05 4.6226C 2.12848e-05 3.13988 2.12848e-05 1.56993 2.12848e-05 -5.32342e-06C 1.30776 0.261651 2.4411 0.610535 3.66165 0.784972C 4.88221 0.872191 6.10281 0.784972 7.41055 0.784972C 8.63111 0.784972 9.93884 0.872191 11.1594 0.784972C 12.38 0.697753 13.5133 0.348875 14.8211 0.0872189C 14.9083 0.348875 14.9954 0.610527 14.9954 0.872183C 14.9954 2.00603 14.9954 3.13988 14.9954 4.27373C 14.9954 4.97148 14.9954 4.97148 14.0364 5.40757C 13.6005 4.53539 13.1646 3.57597 12.7287 2.61656C 11.8569 2.52934 10.985 2.35491 10.2004 2.26769C 9.41571 2.26769 9.06702 2.61657 8.97983 3.40154C 8.97983 3.48876 8.97983 3.57598 8.97983 3.6632C 8.97983 8.02414 8.97983 12.2979 8.97983 16.6588C 8.97983 17.9671 9.32853 18.316 10.6363 18.752C 10.8106 18.8393 10.985 18.8393 11.1594 18.9265C 11.3338 19.537 11.0722 19.8859 10.5491 19.8859C 8.63109 19.9731 6.71308 19.9731 4.6207 19.8859C 4.79506 19.4498 4.79503 19.1009 4.96939 18.9265C 5.84122 17.7054 6.10281 16.3099 6.10281 14.9144C 6.10281 11.3385 6.10281 7.76247 6.10281 4.1865C 6.10281 3.92485 6.10281 3.75041 6.10281 3.48875C 6.01563 2.61656 5.75406 2.26769 4.88223 2.26769C 3.83604 2.26769 3.05138 2.35491 2.09237 2.79101Z" transform="translate(475.1 132.09)" fill="white"/>
</g>
<g id="Group_17">
<g id="Group_18">
<path id="Vector_26" d="M 0.0944073 1.54487C 12.0384 30.4143 19.0131 61.0281 28.8647 90.5953C 29.0391 91.1186 29.5622 91.5547 30.0853 91.5547C 34.0957 91.4675 37.9317 92.1652 41.419 94.1713C 44.0345 95.5668 53.1887 102.632 46.9987 105.423C 45.4294 106.12 46.8243 108.388 48.3064 107.69C 53.7118 105.161 51.2707 99.23 48.2193 96.0029C 43.4242 91.1186 36.7983 88.6765 30.0853 88.9381C 30.5212 89.287 30.9571 89.5487 31.3058 89.8976C 21.4542 60.3304 14.4795 29.7166 2.53551 0.84712C 2.01242 -0.6356 -0.515872 -0.0250689 0.0944073 1.54487Z" transform="translate(281.199 49.9548)" fill="#191965"/>
</g>
</g>
<g id="Group_19">
<g id="Group_20">
<path id="Vector_27" d="M 16.4121 0.356773C 10.0477 6.37487 4.7296 13.0907 0.196098 20.6788C -0.675729 22.1615 1.591 23.4698 2.46283 21.987C 6.90915 14.6607 12.0529 8.11926 18.2429 2.18837C 19.5506 1.05453 17.6326 -0.777072 16.4121 0.356773Z" transform="translate(310.826 118.476)" fill="#191965"/>
</g>
</g>
<g id="Group_21">
<g id="Group_22">
<path id="Vector_28" d="M 0.0021211 1.24287C 0.263669 5.34215 0.699604 9.35422 1.2227 13.3663C 1.48425 15.0234 3.92536 14.3257 3.75099 12.6685C 3.2279 8.83091 2.87915 5.0805 2.6176 1.24287C 2.53042 -0.41429 -0.0850616 -0.41429 0.0021211 1.24287Z" transform="translate(318.518 127.446)" fill="#191965"/>
</g>
</g>
<g id="Group_23">
<g id="Group_24">
<path id="Vector_29" d="M 0.0189579 1.58269C 1.23952 8.03688 1.93696 14.4911 2.80879 20.9453C 3.07034 22.6024 5.59863 21.9047 5.33708 20.2475C 4.46526 13.7933 3.68063 7.25191 2.54725 0.884935C 2.2857 -0.685005 -0.24259 0.0127489 0.0189579 1.58269Z" transform="translate(322.337 123.355)" fill="#191965"/>
</g>
</g>
<g id="Group_25">
<g id="Group_26">
<path id="Vector_30" d="M 0.0329187 1.6453C 0.991929 6.70399 2.03814 11.6755 2.99715 16.7342C 3.7818 21.0079 3.7818 25.3688 4.74081 29.6426C 5.08954 31.2997 7.61783 30.602 7.2691 28.9448C 6.39727 24.6711 6.39727 20.3101 5.52545 16.0364C 4.56644 10.9777 3.52025 6.00624 2.56124 0.947545C 2.21251 -0.709613 -0.315812 -0.0118594 0.0329187 1.6453Z" transform="translate(325.462 120.676)" fill="#191965"/>
</g>
</g>
<g id="Group_27">
<g id="Group_28">
<path id="Vector_31" d="M 2.82712 1.24287C 3.78613 19.1227 3.69894 37.177 6.22724 54.9697C 6.83752 54.4464 7.53499 54.0103 8.14527 53.487C 2.04248 50.8704 -1.00892 58.7201 0.298822 63.5171C 0.734736 65.1743 3.26303 64.4765 2.82712 62.8194C 2.3912 61.1622 2.12966 53.6614 6.83753 55.7546C 7.9709 56.278 8.9299 55.493 8.75553 54.2719C 6.22723 36.7409 6.40161 18.9483 5.4426 1.24287C 5.35542 -0.414288 2.73993 -0.414288 2.82712 1.24287Z" transform="translate(258.85 82.4407)" fill="#191965"/>
</g>
</g>
<g id="Group_29">
<g id="Group_30">
<path id="Vector_32" d="M 0.231703 1.85019C 5.89858 9.61267 11.5655 17.4624 17.1452 25.2248C 22.3761 32.464 27.3455 39.8776 33.5355 46.3318C 34.6689 47.5529 36.4997 45.7213 35.3664 44.5002C 29.002 37.7844 23.8582 30.0219 18.4529 22.5211C 13.1348 15.1947 7.81661 7.86829 2.49846 0.541907C 1.53945 -0.766376 -0.727307 0.541907 0.231703 1.85019Z" transform="translate(190.217 109.482)" fill="#191965"/>
</g>
</g>
<g id="Group_31">
<g id="Group_32">
<path id="Vector_33" d="M 6.1106 1.30828C 6.19779 7.93691 4.27977 13.955 0.269363 19.2754C -0.77683 20.5836 1.48993 21.8919 2.53612 20.5836C 6.72089 14.9144 8.81327 8.28579 8.72608 1.30828C 8.6389 -0.436097 6.02342 -0.436097 6.1106 1.30828Z" transform="translate(216.16 151.976)" fill="#191965"/>
</g>
</g>
<g id="Group_33">
<g id="Group_34">
<path id="Vector_34" d="M 2.92153 1.24287C 3.18308 6.476 2.31125 11.4475 0.131686 16.1573C -0.565776 17.64 1.70098 19.0355 2.39844 17.4656C 4.75238 12.3197 5.88574 6.9121 5.53701 1.24287C 5.36265 -0.414284 2.74716 -0.414284 2.92153 1.24287Z" transform="translate(213.682 146.285)" fill="#191965"/>
</g>
</g>
<g id="Group_35">
<g id="Group_36">
<path id="Vector_35" d="M 2.36105 1.27579C 2.97133 5.54951 1.5764 9.56158 0.0942943 13.5736C -0.515985 15.1436 2.01232 15.8413 2.6226 14.2714C 4.19189 10.0849 5.58681 5.81116 4.97653 1.27579C 4.80217 -0.381373 2.18669 -0.468592 2.36105 1.27579Z" transform="translate(210.232 141.368)" fill="#191965"/>
</g>
</g>
<g id="Group_37">
<g id="Group_38">
<path id="Vector_36" d="M 1.93975 1.25399C 2.37566 4.39387 1.85256 7.35931 0.196093 10.0631C -0.675734 11.5458 1.59101 12.8541 2.46284 11.3714C 4.29367 8.2315 4.99114 4.74275 4.55523 1.16678C 4.29368 -0.403161 1.6782 -0.403169 1.93975 1.25399Z" transform="translate(206.556 134.586)" fill="#191965"/>
</g>
</g>
<g id="Group_39">
<g id="Group_40">
<path id="Vector_37" d="M 1.5576 1.24286C 1.64479 3.42333 1.29606 5.5166 0.162688 7.52263C -0.621957 9.00535 1.64479 10.3136 2.42943 8.83091C 3.73717 6.476 4.34745 3.94665 4.17309 1.24286C 4.0859 -0.414295 1.47042 -0.414295 1.5576 1.24286Z" transform="translate(203.102 129.539)" fill="#191965"/>
</g>
</g>
<g id="Group_41">
<g id="Group_42">
<path id="Vector_38" d="M 1.59101 1.5827C 2.11411 3.41429 1.06791 5.15866 0.196082 6.7286C -0.675745 8.21132 1.59101 9.5196 2.46284 8.03688C 3.77058 5.85641 4.81677 3.50151 4.11931 0.884942C 3.68339 -0.684997 1.1551 0.0127568 1.59101 1.5827Z" transform="translate(198.099 123.268)" fill="#191965"/>
</g>
</g>
<g id="Group_43">
<g id="Group_44">
<path id="Vector_39" d="M 1.66429 1.25399C 1.75148 2.91114 1.31556 4.39387 0.269365 5.70215C -0.776827 7.01044 1.48993 8.31872 2.53612 7.01044C 3.75668 5.35328 4.36696 3.26003 4.27978 1.16678C 4.19259 -0.403163 1.57711 -0.403171 1.66429 1.25399Z" transform="translate(194.626 117.753)" fill="#191965"/>
</g>
</g>
<g id="Group_45">
<g id="Group_46">
<path id="Vector_40" d="M 0.947327 1.24287C 0.947327 2.46393 0.685784 3.51056 0.162688 4.55719C -0.621957 6.03991 1.64479 7.34819 2.42943 5.86547C 3.21407 4.38275 3.56281 2.81281 3.56281 1.24287C 3.47563 -0.414287 0.860144 -0.414287 0.947327 1.24287Z" transform="translate(191.768 113.752)" fill="#191965"/>
</g>
</g>
<g id="Group_47">
<g id="Group_48">
<g id="Group_49">
<path id="Vector_41" d="M 49.3726 0.690874C 37.3414 28.8626 30.8899 58.9531 20.9511 87.9097C 21.387 87.5609 21.8229 87.2992 22.1716 86.9503C 15.197 86.7759 8.39672 89.1308 3.42731 94.015C 0.201545 97.1549 -2.23953 103.173 3.25298 105.702C 4.73509 106.4 6.13001 104.132 4.56072 103.435C -1.8908 100.556 7.78644 93.4917 10.4019 92.1834C 14.0636 90.2646 18.074 89.4797 22.1716 89.5669C 22.7819 89.5669 23.2178 89.1308 23.3922 88.6075C 33.331 59.9125 39.6081 29.9964 51.5522 1.99916C 52.3368 0.516436 50.0701 -0.879066 49.3726 0.690874Z" transform="translate(757.371 50.0239)" fill="#191965"/>
</g>
</g>
<g id="Group_50">
<g id="Group_51">
<path id="Vector_42" d="M 1.15232 1.24287C 0.890774 5.0805 0.542054 8.91812 0.0189579 12.6685C -0.24259 14.3257 2.28568 15.0234 2.54722 13.3663C 3.07032 9.35422 3.50626 5.25494 3.7678 1.24287C 3.94217 -0.414287 1.32669 -0.414287 1.15232 1.24287Z" transform="translate(768.276 126.399)" fill="#191965"/>
</g>
</g>
<g id="Group_52">
<g id="Group_53">
<path id="Vector_43" d="M 2.98314 0.947548C 1.76258 7.40174 0.977968 13.8559 0.0189579 20.3101C -0.24259 21.9673 2.28568 22.665 2.54723 21.0079C 3.41905 14.5537 4.20372 8.01228 5.51146 1.6453C 5.86019 -0.0118567 3.33187 -0.70961 2.98314 0.947548Z" transform="translate(762.61 121.374)" fill="#191965"/>
</g>
</g>
<g id="Group_54">
<g id="Group_55">
<path id="Vector_44" d="M 4.828 0.947548C 3.78181 6.00624 2.73562 10.9777 1.77661 16.0364C 0.904778 20.3101 0.904778 24.7583 0.0329506 28.9448C -0.31578 30.602 2.21249 31.2997 2.56122 29.6426C 3.52023 25.3688 3.52023 21.0079 4.30487 16.7342C 5.26388 11.6755 6.31008 6.70399 7.35627 1.6453C 7.705 -0.0118567 5.17673 -0.70961 4.828 0.947548Z" transform="translate(757.539 118.757)" fill="#191965"/>
</g>
</g>
<g id="Group_56">
<g id="Group_57">
<path id="Vector_45" d="M 3.49465 1.25399C 2.53564 18.8722 2.62282 36.7521 0.00733622 54.283C -0.0798465 55.1552 0.617658 56.2891 1.57667 55.853C 6.72045 53.6725 6.63322 60.8245 6.11013 62.8305C 5.67421 64.4877 8.20253 65.1854 8.63845 63.5283C 9.85901 58.9929 6.89477 50.7943 0.879164 53.3236C 1.40226 53.847 1.9254 54.3703 2.4485 54.8936C 5.06398 37.1009 4.97677 19.1339 6.02297 1.16677C 6.19733 -0.403167 3.58183 -0.403169 3.49465 1.25399Z" transform="translate(824.87 80.5106)" fill="#191965"/>
</g>
</g>
<g id="Group_58">
<g id="Group_59">
<path id="Vector_46" d="M 34.3932 0.54191C 28.7263 8.12995 23.0594 15.718 17.3925 23.2188C 11.9872 30.458 6.75625 37.9588 0.391909 44.5002C -0.82865 45.7213 1.08935 47.5529 2.22272 46.3318C 8.32552 40.052 13.3822 32.9001 18.6131 25.9226C 24.6287 17.8985 30.6443 9.87433 36.6599 1.85019C 37.6189 0.54191 35.3522 -0.766373 34.3932 0.54191Z" transform="translate(867.99 107.563)" fill="#191965"/>
</g>
</g>
<g id="Group_60">
<g id="Group_61">
<path id="Vector_47" d="M 0.00250549 1.24286C -0.0846772 8.30759 2.09488 14.9362 6.36683 20.5182C 7.41303 21.8265 9.67981 20.5182 8.63362 19.2099C 4.53603 13.9768 2.5308 7.87149 2.61799 1.24286C 2.70517 -0.414295 0.0896882 -0.414295 0.00250549 1.24286Z" transform="translate(869.076 150.035)" fill="#191965"/>
</g>
</g>
<g id="Group_62">
<g id="Group_63">
<path id="Vector_48" d="M 0.0618064 1.24286C -0.286925 6.91209 0.846462 12.3197 3.28758 17.4656C 3.98504 18.9483 6.25182 17.64 5.55436 16.1573C 3.28761 11.4475 2.32856 6.47599 2.67729 1.24286C 2.76447 -0.414295 0.148989 -0.414295 0.0618064 1.24286Z" transform="translate(874.946 144.366)" fill="#191965"/>
</g>
</g>
<g id="Group_64">
<g id="Group_65">
<path id="Vector_49" d="M 0.152655 0.947553C -0.457624 5.65737 0.850127 9.9311 2.5066 14.292C 3.11688 15.862 5.6452 15.1642 5.03492 13.5943C 3.55281 9.75666 2.0707 5.83181 2.68098 1.64531C 2.94252 -0.0118514 0.414203 -0.709605 0.152655 0.947553Z" transform="translate(878.952 139.341)" fill="#191965"/>
</g>
</g>
<g id="Group_66">
<g id="Group_67">
<path id="Vector_50" d="M 0.168127 0.942093C -0.354969 4.6925 0.342514 8.18125 2.26053 11.4956C 3.13236 12.9783 5.39909 11.5828 4.52726 10.1873C 2.95797 7.57072 2.26053 4.6925 2.69645 1.72706C 2.87081 -0.0173193 0.342493 -0.715065 0.168127 0.942093Z" transform="translate(883.296 132.63)" fill="#191965"/>
</g>
</g>
<g id="Group_68">
<g id="Group_69">
<path id="Vector_51" d="M 0.0291923 1.30828C -0.145173 4.01206 0.465106 6.54141 1.77285 8.89632C 2.55749 10.379 4.82422 9.07076 4.03958 7.58803C 2.9062 5.66922 2.47031 3.57597 2.64467 1.30828C 2.81904 -0.436097 0.203558 -0.436097 0.0291923 1.30828Z" transform="translate(887.271 127.555)" fill="#191965"/>
</g>
</g>
<g id="Group_70">
<g id="Group_71">
<path id="Vector_52" d="M 0.247155 0.884945C -0.53749 3.50151 0.683015 5.85642 1.99076 8.03689C 2.86258 9.51961 5.12942 8.12411 4.25759 6.7286C 3.29858 5.15867 2.25233 3.5015 2.77542 1.58269C 3.21134 0.0127461 0.683068 -0.684994 0.247155 0.884945Z" transform="translate(892.284 121.349)" fill="#191965"/>
</g>
</g>
<g id="Group_72">
<g id="Group_73">
<path id="Vector_53" d="M 0.0240033 1.23217C -0.150362 3.49986 0.634325 5.5059 2.02925 7.33749C 3.07544 8.64577 4.90626 6.81419 3.86006 5.5059C 2.90105 4.28484 2.5523 2.80212 2.63949 1.3194C 2.72667 -0.424979 0.111186 -0.424985 0.0240033 1.23217Z" transform="translate(895.994 115.856)" fill="#191965"/>
</g>
</g>
<g id="Group_74">
<g id="Group_75">
<path id="Vector_54" d="M 2.12848e-05 1.24287C 2.12848e-05 2.90003 0.348688 4.46996 1.13333 5.86546C 1.91798 7.34818 4.18481 6.0399 3.40017 4.55718C 2.78989 3.51055 2.52832 2.37672 2.6155 1.24287C 2.70269 -0.414284 0.087204 -0.414284 2.12848e-05 1.24287Z" transform="translate(899.68 111.833)" fill="#191965"/>
</g>
</g>
</g>
<g id="Group_76">
<g id="Group_77">
<path id="Vector_55" d="M 0.651958 2.46386C 7.36503 6.56314 12.4216 12.494 15.473 19.7332C 16.1705 21.3031 18.3501 19.9076 17.7398 18.4249C 14.514 10.8369 9.0215 4.55712 1.9597 0.196174C 0.477593 -0.676014 -0.830148 1.59167 0.651958 2.46386Z" transform="translate(762.936 118.985)" fill="#191965"/>
</g>
</g>
</g>
</g>
</svg>
